<svg width="19" height="15" viewBox="0 0 19 15" fill="none" xmlns="http://www.w3.org/2000/svg">
<path d="M1.97829 6.05554V12.5555C1.97829 13.3533 2.72872 14 3.65442 14H15.3873C16.313 14 17.0635 13.3533 17.0635 12.5555V6.05554" stroke="black" stroke-width="1.74945"/>
<path d="M11.8954 14V9.66666C11.8954 8.86889 11.145 8.22221 10.2192 8.22221H8.54311C7.61742 8.22221 6.86699 8.86889 6.86699 9.66666V14" stroke="black" stroke-width="1.74945" stroke-miterlimit="16"/>
<path d="M17.7492 5.59635L16.3296 1.31429C16.2679 1.12826 16.0706 1 15.8461 1H12.4541L12.8524 5.11939C12.8655 5.2542 12.9505 5.37597 13.0853 5.44524C13.4116 5.61282 14.0508 5.92338 14.5493 6.05555C15.4006 6.28125 16.6451 6.19985 17.3538 6.12474C17.6486 6.09354 17.8309 5.84243 17.7492 5.59635Z" stroke="black" stroke-width="1.74945"/>
<path d="M11.197 6.05555C11.6727 5.92944 12.2764 5.64092 12.6141 5.46916C12.775 5.3874 12.8635 5.23296 12.848 5.07264L12.4541 1H6.58769L6.19387 5.07264C6.17837 5.23296 6.26691 5.3874 6.42767 5.46916C6.76542 5.64092 7.36919 5.92944 7.84479 6.05555C9.09602 6.38734 9.94582 6.38734 11.197 6.05555Z" stroke="black" stroke-width="1.74945"/>
<path d="M2.71219 1.31429L1.2925 5.59635C1.21091 5.84243 1.39319 6.09354 1.68793 6.12474C2.39665 6.19985 3.64124 6.28125 4.49252 6.05555C4.99097 5.92338 5.6302 5.61282 5.95643 5.44524C6.09127 5.37597 6.1763 5.2542 6.18934 5.11939L6.58768 1H3.19568C2.97117 1 2.77386 1.12826 2.71219 1.31429Z" stroke="black" stroke-width="1.74945"/>
</svg>
